<?xml version="1.0" encoding="utf-8"?>
<!-- Generator: Adobe Illustrator 16.0.0, SVG Export Plug-In . SVG Version: 6.00 Build 0)  -->
<!DOCTYPE svg PUBLIC "-//W3C//DTD SVG 1.1//EN" "http://www.w3.org/Graphics/SVG/1.1/DTD/svg11.dtd">
<svg version="1.1" xmlns="http://www.w3.org/2000/svg" xmlns:xlink="http://www.w3.org/1999/xlink" x="0px" y="0px"
	 width="386.41px" height="271.727px" viewBox="0 0 386.41 271.727" enable-background="new 0 0 386.41 271.727"
	 xml:space="preserve">
<g id="Layer_3">
	<path fill="#212121" d="M164.849,163.56c-2.065-0.663-4.211-1.331-6.447-2c-0.021-0.008-0.03-0.007-0.051-0.017
		c-28.169-10.113-49.342-35.86-52.099-67.641c-0.297-3.431-0.346-6.824-0.209-10.175c-9.104,16.199-21.604,24.699-45.592,33.008
		c-0.01,0.001-0.028,0.013-0.039,0.013c-3.545,1.241-7.344,2.464-11.412,3.71c-0.02,0.002-0.029,0.013-0.049,0.014
		c-31.109,12.807-51.711,44.696-48.65,79.984c3.775,43.526,42.113,75.755,85.64,71.98c31.112-2.699,56.447-23.064,66.989-50.358
		c-0.002-0.01,0.008-0.021,0.008-0.03c0.908-2.951,1.818-5.759,2.713-8.417c-0.002-0.01,0.008-0.02,0.008-0.03
		c7.321-21.686,14.56-34.351,26.785-43.427C177.309,167.85,171.506,165.701,164.849,163.56z M84.346,242.472
		c-27.029,2.344-50.837-17.664-53.182-44.693c-2.344-27.019,17.666-50.826,44.693-53.17c27.02-2.343,50.827,17.665,53.171,44.684
		C131.372,216.32,111.364,240.128,84.346,242.472z"/>
</g>
<g id="Red_gear">
	<path id="Figure" fill="#D0245E" d="M335.752,118.797c-0.01,0.002-0.021-0.008-0.03-0.008c-2.951-0.908-5.759-1.818-8.417-2.713
		c-0.01,0.002-0.02-0.008-0.03-0.008c-35.551-12.002-46.87-23.769-57.85-57.676c-0.001-0.01-0.011-0.02-0.014-0.041
		c-0.616-1.893-1.229-3.867-1.848-5.911c-11.791-33.064-44.729-55.353-81.342-52.177c-43.527,3.774-75.744,42.111-71.97,85.639
		c2.756,31.78,23.93,57.527,52.099,67.641c0.021,0.01,0.031,0.009,0.051,0.017c2.236,0.669,4.382,1.337,6.447,2
		c33.724,10.848,45.816,21.813,57.56,55.716c0.001,0.01,0.013,0.028,0.013,0.039c1.241,3.545,2.464,7.344,3.71,11.412
		c0.002,0.02,0.013,0.029,0.014,0.049c12.807,31.109,44.696,51.711,79.984,48.65c43.526-3.775,75.755-42.113,71.98-85.64
		C383.411,154.674,363.045,129.339,335.752,118.797z M144.13,83.311c-2.343-27.019,17.665-50.826,44.683-53.169
		c27.029-2.345,50.836,17.663,53.179,44.683c2.345,27.027-17.664,50.836-44.692,53.18
		C170.281,130.348,146.474,110.339,144.13,83.311z M311.452,240.563c-27.019,2.344-50.826-17.666-53.17-44.693
		c-2.343-27.02,17.665-50.827,44.684-53.171c27.028-2.344,50.836,17.664,53.18,44.683
		C358.489,214.41,338.481,238.218,311.452,240.563z"/>
</g>
</svg>
